<?xml version="1.0" encoding="UTF-8"?>
<svg version="1.1" xmlns="http://www.w3.org/2000/svg" width="320" height="320">
<path d="M0 0 C11.28290885 8.1900441 17.82543053 20.13170426 24.875 31.875 C25.61526873 33.10203148 26.35591842 34.32883318 27.09692383 35.55541992 C28.63298112 38.09872587 30.16741667 40.64299923 31.70068359 43.18798828 C34.99385325 48.65132805 38.30664446 54.10274188 41.61923218 59.55432129 C43.04430486 61.89973729 44.46867649 64.24557872 45.89308167 66.59140015 C46.93283946 68.30367809 47.97276636 70.01585334 49.01269531 71.72802734 C50.2908471 73.83242418 51.56885381 75.93690915 52.84667969 78.04150391 C59.63290103 89.21649774 66.45233663 100.37025239 73.3125 111.5 C78.07938046 119.23485367 82.81647765 126.98315256 87.47265625 134.78515625 C98.80959831 153.7412969 110.32791587 172.59758692 121.9453125 191.3828125 C134.55415426 211.77556361 134.55415426 211.77556361 138.875 219.1875 C139.44992187 220.17105469 140.02484375 221.15460938 140.6171875 222.16796875 C144.29646613 229.70321453 145.54166187 238.15534518 143.3828125 246.33984375 C140.44139534 253.12072136 135.07532248 256.64915016 128.49334717 259.54031372 C120.83597318 262.02872905 112.58986501 261.57965682 104.61816406 261.67919922 C102.78947627 261.71180376 100.96080319 261.74524219 99.13214493 261.77946281 C80.07920907 262.11221423 61.0232004 262.14767679 41.96788692 262.1343255 C37.03370559 262.13171385 32.09952568 262.13416314 27.16534424 262.13571167 C18.88968565 262.13750928 10.61403611 262.13519229 2.33837891 262.13037109 C-7.08930255 262.12494051 -16.51696233 262.12669234 -25.94464326 262.1321975 C-34.18389892 262.13680739 -42.42314824 262.13734137 -50.66240478 262.13475883 C-55.51963258 262.13323748 -60.37685038 262.13288249 -65.23407745 262.13629532 C-76.88254068 262.14313918 -88.53012309 262.11268038 -100.17825508 262.02161884 C-102.11753572 262.00676101 -104.05682593 261.99311711 -105.99612236 261.98048687 C-112.1790173 261.93936794 -118.36101714 261.8755827 -124.54335546 261.78251624 C-126.50413316 261.75568661 -128.4650102 261.73522291 -130.42592478 261.72169328 C-141.97076896 261.63498021 -151.58958858 261.18849341 -161.875 255.375 C-166.49480994 250.21168301 -169.28250322 244.54241971 -169.5625 237.5625 C-168.84207668 226.74210302 -163.52656364 218.01113553 -157.8125 209.0625 C-157.10220386 207.93225016 -156.39316844 206.80120718 -155.68530273 205.66943359 C-154.57940389 203.90147769 -153.47283159 202.13399087 -152.36256409 200.36877441 C-148.71783913 194.57229439 -145.15998815 188.7247016 -141.6159668 182.86627197 C-140.55690794 181.11575689 -139.49645064 179.36609672 -138.43554688 177.61669922 C-137.00805807 175.26277801 -135.58097674 172.9086108 -134.15429688 170.55419922 C-128.43853752 161.12280684 -122.71228357 151.69777043 -116.98730469 142.27197266 C-115.7091529 140.16757582 -114.43114619 138.06309085 -113.15332031 135.95849609 C-106.53215182 125.05529778 -99.88106415 114.17141911 -93.1875 103.3125 C-87.61395675 94.26914625 -82.07197444 85.20746531 -76.5625 76.125 C-76.2117038 75.54673462 -75.86090759 74.96846924 -75.4994812 74.37268066 C-72.26647608 69.04240821 -69.03616957 63.71050135 -65.80615234 58.37841797 C-65.07261249 57.1676303 -64.33905131 55.95685555 -63.60546875 54.74609375 C-63.24381119 54.14916718 -62.88215363 53.5522406 -62.50953674 52.93722534 C-59.33720478 47.70289756 -56.15420424 42.4750985 -52.97070312 37.24755859 C-51.08911331 34.1468515 -49.22278778 31.03743514 -47.359375 27.92578125 C-31.87202522 2.22619099 -31.87202522 2.22619099 -19.5625 -2.25 C-12.50334698 -3.73613748 -6.42936803 -3.29334676 0 0 Z M-27.8125 69.4375 C-31.46631178 73.71767951 -31.15388251 77.07985263 -31.16113281 82.5012207 C-31.16609772 83.38105621 -31.17106262 84.26089172 -31.17617798 85.16738892 C-31.19081893 88.0868609 -31.19760511 91.00627854 -31.203125 93.92578125 C-31.20887523 95.95118715 -31.21463298 97.97659304 -31.22039795 100.0019989 C-31.23091369 104.25320693 -31.23675248 108.50439602 -31.24023438 112.75561523 C-31.24571775 118.20324882 -31.26974009 123.65063229 -31.29820633 129.09818745 C-31.31683046 133.28377513 -31.32203821 137.46930258 -31.32357025 141.65492821 C-31.32659824 143.66318312 -31.33463166 145.67143694 -31.34775543 147.67965126 C-31.36480976 150.49015945 -31.36293705 153.30005676 -31.35644531 156.1105957 C-31.3656601 156.94039444 -31.37487488 157.77019318 -31.3843689 158.62513733 C-31.35095709 163.24273329 -30.99078282 166.24977741 -28 170 C-22.99279473 173.45376508 -18.36131225 173.45704014 -12.5 173.375 C-11.67113281 173.38660156 -10.84226563 173.39820313 -9.98828125 173.41015625 C-4.91563995 173.38596241 -1.39454039 172.79342877 3 170 C7.21576481 165.34812158 7.15267018 160.77391804 7.16113281 154.76831055 C7.16609772 153.92894958 7.17106262 153.08958862 7.17617798 152.22479248 C7.19079379 149.44542625 7.19760082 146.66611711 7.203125 143.88671875 C7.20887716 141.95481871 7.21463489 140.02291869 7.22039795 138.09101868 C7.23090644 134.03829685 7.23675003 129.98559486 7.24023438 125.93286133 C7.24571718 120.74430123 7.26974132 115.55600381 7.29820633 110.36752605 C7.31684696 106.37577046 7.32203908 102.38407793 7.32357025 98.39228249 C7.32659435 96.47975034 7.33461468 94.56721924 7.34775543 92.65472984 C7.36484483 89.97624209 7.36292859 87.29839348 7.35644531 84.61987305 C7.3656601 83.83264359 7.37487488 83.04541412 7.3843689 82.23432922 C7.34796701 77.42394836 6.60129692 74.19424465 4 70 C-2.66851125 63.63089129 -20.88184386 63.77607245 -27.8125 69.4375 Z M-25.75 198.375 C-29.91055852 203.22898493 -32.18196784 207.44915789 -32 214 C-30.82974568 219.95352684 -27.60779811 225.07169286 -23 229 C-17.15539832 231.9419136 -10.1146221 232.17560631 -3.83984375 230.3828125 C1.06448415 227.94681666 3.95349339 223.93022047 6 219 C7.62660415 212.5839503 7.33156337 207.85895627 4 202 C1.06401946 197.69389521 -1.9610381 195.11428603 -6.875 193.3125 C-14.37637649 192.2093564 -19.9316444 193.35005652 -25.75 198.375 Z " fill="#CD3537" transform="translate(172,31)"/>
<path d="M0 0 C0.99 0 1.98 0 3 0 C3 30.36 3 60.72 3 92 C2.67 92 2.34 92 2 92 C1.98969254 90.92116043 1.97938507 89.84232086 1.96876526 88.73078918 C1.87100631 78.56343493 1.76826982 68.39614152 1.66066074 58.2288866 C1.60549797 53.00181472 1.55208861 47.77473717 1.50268555 42.54760742 C1.45494396 37.50309625 1.40259766 32.45865195 1.34705925 27.41422081 C1.32668006 25.48972934 1.30795974 23.56521956 1.29092598 21.64069557 C1.26678367 18.94504815 1.23674268 16.24952613 1.20532227 13.55395508 C1.1995668 12.75841721 1.19381134 11.96287933 1.18788147 11.14323425 C1.13713218 7.3124461 0.92343642 3.72541675 0 0 Z " fill="#C16261" transform="translate(177,102)"/>
<path d="M0 0 C8.49253593 2.38852573 14.22331721 10.03400426 19 17 C18.34 17.33 17.68 17.66 17 18 C17 17.34 17 16.68 17 16 C14.60931266 14.89363605 14.60931266 14.89363605 12 14 C11.01 14.495 11.01 14.495 10 15 C9.34 14.67 8.68 14.34 8 14 C8 13.34 8 12.68 8 12 C7.34 11.67 6.68 11.34 6 11 C6.66 10.01 7.32 9.02 8 8 C7.34 8 6.68 8 6 8 C6 7.34 6 6.68 6 6 C5.34 6 4.68 6 4 6 C1.875 4.125 1.875 4.125 0 2 C0 1.34 0 0.68 0 0 Z " fill="#C84549" transform="translate(168,30)"/>
<path d="M0 0 C0.33 0.66 0.66 1.32 1 2 C0.67 2.969375 0.34 3.93875 0 4.9375 C-1.33339097 7.99162848 -1.33339097 7.99162848 0 11 C-0.4375 13.6875 -0.4375 13.6875 -1 16 C-1.886875 16.268125 -2.77375 16.53625 -3.6875 16.8125 C-6.76877548 17.91710819 -9.26221405 19.22849144 -12 21 C-10.32508169 16.11963459 -7.63208039 12.00847052 -4.875 7.6875 C-4.40707031 6.94693359 -3.93914063 6.20636719 -3.45703125 5.44335938 C-2.30835804 3.62658032 -1.15467631 1.81296963 0 0 Z " fill="#CC474B" transform="translate(64,159)"/>
<path d="M0 0 C-6.07792208 6.24675325 -6.07792208 6.24675325 -9 8 C-9.99 7.67 -10.98 7.34 -12 7 C-12.433125 7.433125 -12.86625 7.86625 -13.3125 8.3125 C-15.875 10.875 -18.4375 13.4375 -21 16 C-21 10.47326333 -15.73157046 6.74995258 -12 3 C-8.04587033 -0.6223773 -5.32188505 -1.52053858 0 0 Z " fill="#CB363C" transform="translate(155,31)"/>
<path d="M0 0 C1.32789969 2.1871289 2.04752686 3.47720456 1.8125 6.0625 C0.80533678 8.46419692 0.18788297 9.54141136 -2 11 C-5.6875 11.1875 -5.6875 11.1875 -9 11 C-9.33 11.66 -9.66 12.32 -10 13 C-15.94 12.34 -21.88 11.68 -28 11 C-28 10.67 -28 10.34 -28 10 C-26.69804687 9.96261719 -25.39609375 9.92523438 -24.0546875 9.88671875 C-22.32809743 9.82103326 -20.60153619 9.75458682 -18.875 9.6875 C-18.0190625 9.66494141 -17.163125 9.64238281 -16.28125 9.61914062 C-11.18308093 9.40344886 -7.37361898 8.89752258 -3 6 C-1.09793151 2.94960779 -1.09793151 2.94960779 0 0 Z " fill="#C74950" transform="translate(178,194)"/>
<path d="M0 0 C0.69738281 0.00902344 1.39476562 0.01804688 2.11328125 0.02734375 C3.82566958 0.05080112 5.53788004 0.08666896 7.25 0.125 C7.25 0.785 7.25 1.445 7.25 2.125 C6.53714844 2.09019531 5.82429688 2.05539063 5.08984375 2.01953125 C-2.65467122 1.80064186 -7.52124637 2.26315019 -13.5 7.5625 C-15.36830322 9.69028977 -17.12129887 11.81052998 -18.75 14.125 C-18.75 12.145 -18.75 10.165 -18.75 8.125 C-18.09 7.795 -17.43 7.465 -16.75 7.125 C-15.61649466 5.10830173 -15.61649466 5.10830173 -14.75 3.125 C-13.76 3.455 -12.77 3.785 -11.75 4.125 C-11.75 3.465 -11.75 2.805 -11.75 2.125 C-8.00764681 -0.32489101 -4.30774581 -0.10586143 0 0 Z " fill="#C85E62" transform="translate(159.75,222.875)"/>
<path d="M0 0 C0.33 0.99 0.66 1.98 1 3 C1.66 3 2.32 3 3 3 C3.33 4.32 3.66 5.64 4 7 C3.01 7.495 3.01 7.495 2 8 C1.67 8.66 1.34 9.32 1 10 C-0.64295195 11.36244796 -2.30824337 12.69864875 -4 14 C-4.66 13.67 -5.32 13.34 -6 13 C-4.75696561 7.82069003 -3.14512215 4.29833361 0 0 Z " fill="#C94B4C" transform="translate(11,246)"/>
<path d="M0 0 C0.77537109 -0.00257812 1.55074219 -0.00515625 2.34960938 -0.0078125 C3.15591797 -0.00007813 3.96222656 0.00765625 4.79296875 0.015625 C5.9850293 0.00402344 5.9850293 0.00402344 7.20117188 -0.0078125 C11.85366931 0.00758038 15.60567692 0.49034716 19.98046875 2.265625 C19.98046875 2.925625 19.98046875 3.585625 19.98046875 4.265625 C20.64046875 4.595625 21.30046875 4.925625 21.98046875 5.265625 C18.98046875 5.265625 18.98046875 5.265625 15.98046875 3.265625 C8.48828753 1.73247595 0.58326379 2.15837554 -7.01953125 2.265625 C-3.9952892 0.24946363 -3.39246024 0.01092957 0 0 Z " fill="#D27B7E" transform="translate(156.01953125,95.734375)"/>
<path d="M0 0 C0 0.33 0 0.66 0 1 C-1.71896484 1.03867188 -1.71896484 1.03867188 -3.47265625 1.078125 C-5.0026403 1.13444343 -6.53258675 1.1917899 -8.0625 1.25 C-8.81466797 1.26417969 -9.56683594 1.27835937 -10.34179688 1.29296875 C-17.10575098 1.58578062 -21.39429071 3.59472988 -26.4375 8.25 C-26.953125 8.8275 -27.46875 9.405 -28 10 C-28 8.02 -28 6.04 -28 4 C-19.11941968 -1.36185982 -10.02748487 -0.36723241 0 0 Z " fill="#C13B3D" transform="translate(169,95)"/>
<path d="M0 0 C0.33 0 0.66 0 1 0 C1 1.65 1 3.3 1 5 C0.01 5 -0.98 5 -2 5 C-2 5.99 -2 6.98 -2 8 C-2.66 8 -3.32 8 -4 8 C-4.66 9.32 -5.32 10.64 -6 12 C-11.28 11.67 -16.56 11.34 -22 11 C-22 10.67 -22 10.34 -22 10 C-20.78763672 9.94392578 -20.78763672 9.94392578 -19.55078125 9.88671875 C-18.48214844 9.82097656 -17.41351563 9.75523437 -16.3125 9.6875 C-14.72888672 9.60048828 -14.72888672 9.60048828 -13.11328125 9.51171875 C-9.75705899 8.96006867 -7.81867667 7.84127215 -5 6 C-4.34 6 -3.68 6 -3 6 C-2.690625 5.38125 -2.38125 4.7625 -2.0625 4.125 C-1.375 2.75 -0.6875 1.375 0 0 Z " fill="#D77377" transform="translate(176,252)"/>
<path d="M0 0 C2.99381354 2.80466193 5.1993621 5.61184269 7.3125 9.125 C8.11107422 10.42824219 8.11107422 10.42824219 8.92578125 11.7578125 C9.28027344 12.49773437 9.63476562 13.23765625 10 14 C9.67 14.66 9.34 15.32 9 16 C8.34 15.67 7.68 15.34 7 15 C7 14.01 7 13.02 7 12 C5.02 12 3.04 12 1 12 C0.67 11.01 0.34 10.02 0 9 C0.66 8.34 1.32 7.68 2 7 C1.34 4.69 0.68 2.38 0 0 Z " fill="#CB474D" transform="translate(290,218)"/>
<path d="M0 0 C2.78765765 2.5303354 4.67463495 5.39339801 6.6875 8.5625 C7.31011719 9.53316406 7.93273437 10.50382812 8.57421875 11.50390625 C10 14 10 14 10 16 C8.68 16 7.36 16 6 16 C5.73445312 15.38511719 5.46890625 14.77023438 5.1953125 14.13671875 C4.84210938 13.32847656 4.48890625 12.52023438 4.125 11.6875 C3.77695313 10.88699219 3.42890625 10.08648437 3.0703125 9.26171875 C1.97428106 6.8038166 1.97428106 6.8038166 0 4 C0 2.68 0 1.36 0 0 Z " fill="#C85D60" transform="translate(220,103)"/>
<path d="M0 0 C5.32336512 7.09782016 5.86709759 14.27801833 5 23 C4.34 23.99 3.68 24.98 3 26 C3 20.72 3 15.44 3 10 C2.34 10 1.68 10 1 10 C0.67 6.7 0.34 3.4 0 0 Z " fill="#CF6F72" transform="translate(311,252)"/>
<path d="M0 0 C2.99381354 2.80466193 5.1993621 5.61184269 7.3125 9.125 C8.11107422 10.42824219 8.11107422 10.42824219 8.92578125 11.7578125 C9.28027344 12.49773437 9.63476562 13.23765625 10 14 C9.67 14.66 9.34 15.32 9 16 C8.34 15.67 7.68 15.34 7 15 C7 14.34 7 13.68 7 13 C6.34 13 5.68 13 5 13 C3.68 10.36 2.36 7.72 1 5 C0.34 5 -0.32 5 -1 5 C-0.67 3.35 -0.34 1.7 0 0 Z " fill="#CB6166" transform="translate(245,144)"/>
<path d="M0 0 C1.32789969 2.1871289 2.04752686 3.47720456 1.8125 6.0625 C0.8019291 8.47232291 0.23298671 9.58577508 -2 11 C-5.6875 10.6875 -5.6875 10.6875 -9 10 C-8.01 9.34 -7.02 8.68 -6 8 C-2.19090197 4.53877143 -2.19090197 4.53877143 0 0 Z " fill="#CD565A" transform="translate(178,194)"/>
<path d="M0 0 C0.66 1.32 1.32 2.64 2 4 C-0.40242227 7.17462943 -2.61713276 9.85751741 -6 12 C-6.66 12 -7.32 12 -8 12 C-8 10.68 -8 9.36 -8 8 C-7.360625 7.87625 -6.72125 7.7525 -6.0625 7.625 C-5.381875 7.41875 -4.70125 7.2125 -4 7 C-3.67 6.34 -3.34 5.68 -3 5 C-2.34 5.33 -1.68 5.66 -1 6 C-0.67 4.02 -0.34 2.04 0 0 Z " fill="#CD5B60" transform="translate(312,276)"/>
<path d="M0 0 C4.39291786 3.31909349 6.8227865 5.79887886 9 11 C8.34 11 7.68 11 7 11 C7 10.34 7 9.68 7 9 C4.60931266 7.89363605 4.60931266 7.89363605 2 7 C1.01 7.495 1.01 7.495 0 8 C0 5.36 0 2.72 0 0 Z " fill="#C74E51" transform="translate(178,37)"/>
<path d="M0 0 C0.66 0.33 1.32 0.66 2 1 C-0.36664989 4.88806767 -1.90350401 7.08830187 -6 9 C-6.68268138 10.32520503 -7.3507041 11.65812182 -8 13 C-8.99 13.33 -9.98 13.66 -11 14 C-9.57442379 10.82096506 -7.8226848 8.46341568 -5.5 5.875 C-4.8915625 5.19179688 -4.283125 4.50859375 -3.65625 3.8046875 C-2.46695076 2.50880012 -1.24373566 1.24373566 0 0 Z " fill="#CA5D62" transform="translate(144,33)"/>
<path d="M0 0 C1.45606519 4.52092968 0.27032841 7.51648796 -1 12 C-1.66 12 -2.32 12 -3 12 C-4.1484375 10.265625 -4.1484375 10.265625 -5 8 C-4.1015625 5.859375 -4.1015625 5.859375 -2.625 3.75 C-2.14289062 3.04359375 -1.66078125 2.3371875 -1.1640625 1.609375 C-0.77992187 1.07828125 -0.39578125 0.5471875 0 0 Z " fill="#CB4F54" transform="translate(37,203)"/>
<path d="M0 0 C7 8.44827586 7 8.44827586 7 12 C5.68 12 4.36 12 3 12 C2.67 9.36 2.34 6.72 2 4 C1.34 4 0.68 4 0 4 C0 2.68 0 1.36 0 0 Z " fill="#C85659" transform="translate(202,73)"/>
<path d="M0 0 C1 3 1 3 0.0625 5.1875 C-0.4634375 6.0846875 -0.4634375 6.0846875 -1 7 C-1.66 7 -2.32 7 -3 7 C-3.12375 7.5775 -3.2475 8.155 -3.375 8.75 C-4.00648824 11.02335767 -4.88858191 12.9253529 -6 15 C-6.66 15 -7.32 15 -8 15 C-6.62712658 11.30123909 -4.93644547 8.0485524 -2.875 4.6875 C-2.33617187 3.80449219 -1.79734375 2.92148438 -1.2421875 2.01171875 C-0.83226562 1.34785156 -0.42234375 0.68398437 0 0 Z " fill="#CC6164" transform="translate(20,231)"/>
<path d="M0 0 C4.42857143 5.14285714 4.42857143 5.14285714 5 9 C4.21625 8.979375 3.4325 8.95875 2.625 8.9375 C0.01885039 8.81315937 0.01885039 8.81315937 -2 10 C-1.34 6.7 -0.68 3.4 0 0 Z " fill="#CC5155" transform="translate(268,181)"/>
<path d="M0 0 C2.74277578 3.19990508 4.6302836 6.00499382 6 10 C4.35 10.33 2.7 10.66 1 11 C1 10.34 1 9.68 1 9 C1.66 9 2.32 9 3 9 C2.505 8.2575 2.01 7.515 1.5 6.75 C0 4 0 4 0 0 Z " fill="#CB5C5F" transform="translate(235,127)"/>
<path d="M0 0 C0.99 0.66 1.98 1.32 3 2 C2.34 3.65 1.68 5.3 1 7 C-0.32 7 -1.64 7 -3 7 C-1.125 2.25 -1.125 2.25 0 0 Z " fill="#CD4C52" transform="translate(132,47)"/>
<path d="M0 0 C0.66 0.33 1.32 0.66 2 1 C2.28571429 8.42857143 2.28571429 8.42857143 0 12 C-0.66 12 -1.32 12 -2 12 C-1.34 8.04 -0.68 4.08 0 0 Z " fill="#C96164" transform="translate(179,240)"/>
<path d="M0 0 C2.74277578 3.19990508 4.6302836 6.00499382 6 10 C4.68 10 3.36 10 2 10 C0.68373308 6.38026598 0 3.90432869 0 0 Z " fill="#C85C5E" transform="translate(194,60)"/>
<path d="M0 0 C2 4 4 8 6 12 C2.15625 11.203125 2.15625 11.203125 0.75 9.375 C-0.25295915 6.1989627 -0.12721966 3.30771122 0 0 Z " fill="#CF6E73" transform="translate(140,245)"/>
<path d="M0 0 C0.66 0.99 1.32 1.98 2 3 C1.01 4.485 1.01 4.485 0 6 C-0.66 6 -1.32 6 -2 6 C-2 6.99 -2 7.98 -2 9 C-2.66 9 -3.32 9 -4 9 C-4 9.99 -4 10.98 -4 12 C-4.66 12 -5.32 12 -6 12 C-4.43358249 7.69235185 -2.31663844 3.93828536 0 0 Z " fill="#CB5F65" transform="translate(71,147)"/>
<path d="M0 0 C3.96 0 7.92 0 12 0 C12.33 0.99 12.66 1.98 13 3 C13.66 3.33 14.32 3.66 15 4 C12 4 12 4 9 2 C6.72087062 1.54605448 6.72087062 1.54605448 4.3125 1.375 C3.50425781 1.30023438 2.69601563 1.22546875 1.86328125 1.1484375 C1.24839844 1.09945312 0.63351563 1.05046875 0 1 C0 0.67 0 0.34 0 0 Z " fill="#D87379" transform="translate(163,97)"/>
<path d="M0 0 C0.75 1.625 0.75 1.625 1 4 C-0.8125 7.25 -0.8125 7.25 -3 10 C-3.66 10 -4.32 10 -5 10 C-3.66511872 6.40608886 -2.03977277 3.24509304 0 0 Z " fill="#C85F61" transform="translate(123,62)"/>
<path d="M0 0 C2.875 0.6875 2.875 0.6875 6 2 C7.375 4.625 7.375 4.625 8 7 C4.63718422 5.55879324 2.4480582 3.71035015 0 1 C0 0.67 0 0.34 0 0 Z " fill="#CB6366" transform="translate(7,281)"/>
<path d="M0 0 C0.33 0 0.66 0 1 0 C1 3.3 1 6.6 1 10 C-0.32 10.33 -1.64 10.66 -3 11 C-2.01 7.37 -1.02 3.74 0 0 Z " fill="#C0373B" transform="translate(139,242)"/>
<path d="M0 0 C3.33557632 2.9905167 5.15083921 5.93184627 7 10 C5.68 10 4.36 10 3 10 C3 8.68 3 7.36 3 6 C2.34 6 1.68 6 1 6 C0.67 4.02 0.34 2.04 0 0 Z " fill="#CA6267" transform="translate(290,218)"/>
<path d="M0 0 C4 4.5 4 4.5 4 9 C1 7 1 7 0 4 C-0.66 3.34 -1.32 2.68 -2 2 C-1.34 2 -0.68 2 0 2 C0 1.34 0 0.68 0 0 Z " fill="#C85D61" transform="translate(283,206)"/>
<path d="M0 0 C0.75 1.625 0.75 1.625 1 4 C-0.8125 7.25 -0.8125 7.25 -3 10 C-3.66 10 -4.32 10 -5 10 C-3.66511872 6.40608886 -2.03977277 3.24509304 0 0 Z " fill="#C2565B" transform="translate(47,187)"/>
<path d="M0 0 C1.4540625 0.0309375 1.4540625 0.0309375 2.9375 0.0625 C1.96183888 1.23209987 0.981875 2.39811177 0 3.5625 C-0.54527344 4.2121875 -1.09054688 4.861875 -1.65234375 5.53125 C-2.11769531 6.0365625 -2.58304688 6.541875 -3.0625 7.0625 C-3.3925 7.0625 -3.7225 7.0625 -4.0625 7.0625 C-4.10504356 5.06295254 -4.10330783 3.06208364 -4.0625 1.0625 C-3.0625 0.0625 -3.0625 0.0625 0 0 Z " fill="#D46368" transform="translate(145.0625,97.9375)"/>
<path d="M0 0 C0.33 0.66 0.66 1.32 1 2 C1.66 2.33 2.32 2.66 3 3 C0.03 5.475 0.03 5.475 -3 8 C-3 4.42424104 -1.91159393 2.94704065 0 0 Z " fill="#CF5A5E" transform="translate(56,172)"/>
<path d="M0 0 C0.99 0.33 1.98 0.66 3 1 C4.1875 3.5625 4.1875 3.5625 5 6 C3.68 6 2.36 6 1 6 C0.67 4.02 0.34 2.04 0 0 Z " fill="#CA4F53" transform="translate(225,113)"/>
<path d="M0 0 C4 4.625 4 4.625 4 8 C2.68 7.34 1.36 6.68 0 6 C0 4.02 0 2.04 0 0 Z " fill="#C85E62" transform="translate(211,88)"/>
<path d="M0 0 C0.6875 1.75 0.6875 1.75 1 4 C-0.3125 6.25 -0.3125 6.25 -2 8 C-2.66 8 -3.32 8 -4 8 C-2.87548273 5.0280615 -1.77706209 2.66559313 0 0 Z " fill="#C96166" transform="translate(111,82)"/>
<path d="M0 0 C1.3921875 0.3403125 1.3921875 0.3403125 2.8125 0.6875 C1.6875 2.25 1.6875 2.25 -0.1875 3.6875 C-3.375 3.375 -3.375 3.375 -6.1875 2.6875 C-4.14987265 -0.14253799 -3.59070275 -0.35202968 0 0 Z " fill="#D24F55" transform="translate(152.1875,30.3125)"/>
</svg>
